/* XPM */
static char * TexGen_xpm[] = {
"16 16 160 2",
"  	c None",
". 	c #261F00",
"+ 	c #251E00",
"@ 	c #241D00",
"# 	c #221C00",
"$ 	c #211B00",
"% 	c #201A00",
"& 	c #1F1900",
"* 	c #1D1800",
"= 	c #1C1700",
"- 	c #1B1600",
"; 	c #1A1500",
"> 	c #181400",
", 	c #564500",
"' 	c #DFB401",
") 	c #D7AE01",
"! 	c #D0A701",
"~ 	c #C8A101",
"{ 	c #C09B01",
"] 	c #B99501",
"^ 	c #B18F01",
"/ 	c #A98801",
"( 	c #A28201",
"_ 	c #9A7C01",
": 	c #927601",
"< 	c #8A7001",
"[ 	c #161200",
"} 	c #514100",
"| 	c #D2AA01",
"1 	c #CBA301",
"2 	c #C39D01",
"3 	c #BB9701",
"4 	c #B49101",
"5 	c #AC8B01",
"6 	c #A48401",
"7 	c #9D7E01",
"8 	c #957801",
"9 	c #8D7201",
"0 	c #866C00",
"a 	c #7E6500",
"b 	c #141000",
"c 	c #5F4D00",
"d 	c #5C4A00",
"e 	c #584700",
"f 	c #554400",
"g 	c #9C7E01",
"h 	c #9F8101",
"i 	c #987A01",
"j 	c #796100",
"k 	c #423500",
"l 	c #3F3200",
"m 	c #3B3000",
"n 	c #372D00",
"o 	c #090700",
"p 	c #156D7B",
"q 	c #1EA1B5",
"r 	c #7B6301",
"s 	c #937601",
"t 	c #8B7001",
"u 	c #504000",
"v 	c #198798",
"w 	c #167786",
"x 	c #07252A",
"y 	c #198494",
"z 	c #1EA2B5",
"A 	c #1D9CAF",
"B 	c #715B00",
"C 	c #866C01",
"D 	c #7F6601",
"E 	c #483A00",
"F 	c #188090",
"G 	c #177D8C",
"H 	c #15717F",
"I 	c #031215",
"J 	c #0F4F59",
"K 	c #1EA2B6",
"L 	c #1D9CB0",
"M 	c #10535D",
"N 	c #675300",
"O 	c #7A6200",
"P 	c #725C00",
"Q 	c #413400",
"R 	c #082D32",
"S 	c #0B3A41",
"T 	c #08292E",
"U 	c #020B0C",
"V 	c #198697",
"W 	c #1E9DB0",
"X 	c #1C95A7",
"Y 	c #5D4B00",
"Z 	c #6D5800",
"` 	c #665200",
" .	c #392E00",
"..	c #02090B",
"+.	c #1D98AB",
"@.	c #177B8B",
"#.	c #534300",
"$.	c #614E00",
"%.	c #3C3000",
"&.	c #1E1800",
"*.	c #051A1D",
"=.	c #1C93A5",
"-.	c #157280",
";.	c #493B00",
">.	c #544400",
",.	c #152C24",
"'.	c #136774",
").	c #13636F",
"!.	c #125E6A",
"~.	c #115964",
"{.	c #0B3C43",
"].	c #010708",
"^.	c #1B92A4",
"/.	c #1B8E9F",
"(.	c #167482",
"_.	c #3F3300",
":.	c #473A00",
"<.	c #11221B",
"[.	c #0F4E57",
"}.	c #0E4A53",
"|.	c #125F6B",
"1.	c #0C3F47",
"2.	c #1A899A",
"3.	c #188292",
"4.	c #352A00",
"5.	c #3B2F00",
"6.	c #2A2200",
"7.	c #151100",
"8.	c #0C424A",
"9.	c #0B3B43",
"0.	c #0C4048",
"a.	c #187F8E",
"b.	c #0D454E",
"c.	c #1D1700",
"d.	c #2E2500",
"e.	c #271F00",
"f.	c #120F00",
"g.	c #10545F",
"h.	c #0B383F",
"i.	c #136471",
"j.	c #177A89",
"k.	c #167483",
"l.	c #0E4C56",
"m.	c #0B2829",
"n.	c #0A2222",
"o.	c #092C31",
"p.	c #0E4D56",
"q.	c #10555F",
"r.	c #082D33",
"s.	c #156F7C",
"t.	c #146A77",
"u.	c #136571",
"v.	c #115A65",
"w.	c #0D434C",
"x.	c #061E22",
"y.	c #031113",
"z.	c #07272C",
"A.	c #082A30",
"B.	c #072328",
"C.	c #041316",
"    . + @ # $ % & * = - ; >     ",
"  , ' ) ! ~ { ] ^ / ( _ : < [   ",
"  } | 1 2 3 4 5 6 7 8 9 0 a b   ",
"  + c d e f g h i j k l m n o   ",
"        p q r s t u v w x       ",
"      y z A B C D E F G H I     ",
"    J K L M N O P Q R S T U     ",
"    V W X   Y Z `  .            ",
"  ..L +.@.  #.$.%.&.            ",
"  *.+.=.-.  ;.>.,.'.).!.~.{.    ",
"  ].^./.(.  _.:.<.[.}.|.!.1.    ",
"    (.2.3.  4.5.6.7.  8.~.9.    ",
"    0.y a.b.c.d.e.f.  b.g.h.    ",
"      i.j.k.l.m.n.o.p.q.J r.    ",
"        p.s.t.u.|.v.q.w.x.      ",
"          y.z.R A.B.C.          "};
